<svg width="24" height="24" viewBox="0 0 24 24" fill="none" xmlns="http://www.w3.org/2000/svg">
<path d="M0.895262 5.05833C0.853296 5.10208 0.839308 5.64651 0.839308 7.21663V9.31659L0.969867 9.57423C1.06312 9.76381 1.16104 9.87561 1.3289 9.98255L1.55272 10.1284H2.69977H3.84683L4.06598 9.99228C4.30845 9.84644 4.43901 9.68117 4.51361 9.42353C4.54159 9.33117 4.67215 8.68466 4.80271 7.98953C4.9286 7.2944 5.04517 6.67705 5.05916 6.61386L5.08247 6.50692H12.0347H18.9823L18.9684 6.90552L18.9544 7.30899L14.2682 7.33329L9.5821 7.3576L9.36294 7.4694C9.09716 7.60551 8.78942 7.94578 8.66352 8.2423C8.47701 8.6798 8.51897 8.9666 9.01323 10.7457L9.45154 12.3402H5.22702C1.47811 12.3402 0.988518 12.3499 0.895262 12.4179L0.792679 12.4908V14.2651V16.0345H0.452294C0.251792 16.0345 0.0885936 16.0588 0.0559538 16.0929C0.0186513 16.1318 0 16.3748 0 16.8658C0 17.454 0.0139885 17.5949 0.0746051 17.6581C0.135222 17.7213 0.279769 17.7359 0.937227 17.7359C1.37553 17.7359 1.77187 17.7165 1.8185 17.6873C1.87912 17.6533 1.91176 17.5609 1.93507 17.3373C2.02833 16.4234 2.52259 15.6408 3.26864 15.2325C3.82351 14.9262 3.93076 14.9165 6.69115 14.9165C8.16926 14.9165 9.28368 14.9359 9.46086 14.9651C9.9831 15.0575 10.566 15.3929 10.911 15.8109C11.2654 16.2387 11.4472 16.6567 11.5218 17.2449C11.5545 17.4831 11.5964 17.6338 11.6477 17.6776C11.7037 17.7213 12.4777 17.7359 15.1542 17.7359H18.5813L18.6373 18.0276C18.7399 18.5866 19.043 19.0484 19.5139 19.3643C20.4185 19.9671 21.6355 19.7095 22.209 18.7907C22.3862 18.5039 22.5214 18.1539 22.5214 17.9789C22.5214 17.7796 22.5727 17.7505 22.9504 17.7262C23.3934 17.697 23.6265 17.5609 23.7757 17.2401C23.869 17.031 23.8736 16.963 23.8736 15.0818C23.8736 13.1617 23.8736 13.1374 23.7711 12.9235C23.5892 12.554 23.426 12.4617 22.638 12.2818L21.9386 12.1214L21.449 11.3825C21.1785 10.9791 20.8055 10.4152 20.619 10.1332L20.2833 9.61798H18.6373C17.4203 9.61798 16.9773 9.63256 16.9354 9.67631C16.8934 9.72006 16.8794 10.4249 16.8794 12.5443C16.8794 15.2714 16.8841 15.354 16.968 15.4026C17.024 15.4318 17.4809 15.4512 18.129 15.4512C19.1828 15.4512 19.1968 15.4512 19.4253 15.3248C19.7144 15.1693 20.2833 15.0137 20.5584 15.0137C20.8615 15.0137 21.2858 15.1304 21.6355 15.3005C21.9339 15.4512 21.9479 15.4512 22.6986 15.4512H23.454V16.2484C23.454 17.0408 23.454 17.0408 23.3328 17.172C23.2208 17.2838 23.1742 17.2984 22.8665 17.2984H22.5261L22.4561 17.0408C22.0691 15.6505 20.4045 15.1255 19.2948 16.0443C19.0523 16.2436 18.7632 16.7054 18.6699 17.0408L18.6 17.2984L15.2567 17.2887L11.9135 17.2741L11.8809 17.031C11.727 15.9179 10.8457 14.9116 9.76861 14.6248C9.42356 14.5325 9.25104 14.5276 6.73778 14.5276C4.23384 14.5276 4.04733 14.5325 3.71161 14.6248C3.21735 14.7561 2.835 14.9797 2.44798 15.3589C1.96771 15.8352 1.66929 16.4283 1.56204 17.1185L1.53407 17.2984H0.955878H0.373026V16.8609V16.4234H0.718074C0.946553 16.4234 1.07711 16.404 1.11441 16.3602C1.14705 16.3165 1.17037 15.8936 1.17503 15.1547L1.18902 14.0172L8.78475 13.9929C15.9515 13.9686 16.3805 13.9637 16.4318 13.8811C16.4691 13.8228 16.4691 13.7742 16.4318 13.711C16.3852 13.6429 16.2919 13.6283 15.765 13.6137C15.4293 13.6089 15.1542 13.5846 15.1542 13.5651C15.1542 13.5457 15.3314 13.361 15.5458 13.1519C15.9142 12.802 15.9562 12.7776 16.1427 12.7776C16.2546 12.7776 16.3712 12.7533 16.4038 12.7193C16.4877 12.6318 16.4691 12.4471 16.3712 12.3888C16.3152 12.3596 15.8956 12.3402 15.3314 12.3402H14.3801L13.0932 10.5756L11.8063 8.81591L16.124 8.7916L20.4465 8.7673L20.6003 8.65549C20.8242 8.48536 20.9034 8.29091 20.8801 7.97009C20.8568 7.72217 20.8381 7.68815 20.6423 7.50343L20.4232 7.30412V6.8958V6.48747L20.6423 6.28817C20.8381 6.10345 20.8568 6.06942 20.8754 5.82637C20.9034 5.47638 20.7915 5.25763 20.5164 5.10694L20.3112 5H10.6312C3.16606 5 0.937227 5.01458 0.895262 5.05833ZM5.54409 5.44235C5.78656 5.52985 5.86117 5.79234 5.68864 5.9722C5.60937 6.05484 5.53477 6.06942 5.22702 6.06942C4.94259 6.06942 4.84467 6.08887 4.79804 6.1472C4.76074 6.19581 4.63484 6.74511 4.51827 7.37704L4.30378 8.52424L2.76039 8.53883L1.21233 8.54855V7.00274C1.21233 6.15206 1.22632 5.43749 1.24497 5.42291C1.30093 5.36457 5.3809 5.38402 5.54409 5.44235ZM20.4418 5.5104C20.563 5.64165 20.577 5.78262 20.4791 5.91873L20.3905 6.04512L13.2611 6.0597L6.13161 6.06942V5.75346V5.43749H13.2517C19.5279 5.43749 20.3765 5.44721 20.4418 5.5104ZM20.0408 6.90552L20.0268 7.30899L19.6911 7.32357L19.3507 7.33815V6.9201V6.50692H19.7004H20.0548L20.0408 6.90552ZM10.3095 7.77565C10.3981 7.80967 10.5333 7.88259 10.6126 7.94578C10.6918 8.00897 11.3959 8.92771 12.1746 9.99228C12.9487 11.0568 13.6574 12.0193 13.746 12.1311L13.9045 12.3402H11.8809H9.8572L9.40491 10.6728C9.14845 9.73464 8.95262 8.92285 8.95262 8.80618C8.95728 8.07703 9.6567 7.54718 10.3095 7.77565ZM20.4698 7.85342C20.5397 7.94578 20.5584 8.02356 20.5397 8.11106C20.4698 8.39786 20.7729 8.37841 15.9329 8.38813L11.4939 8.39786L11.2467 8.06245L10.9996 7.72217H15.6857H20.3719L20.4698 7.85342ZM4.19654 9.07354C4.19654 9.26798 4.04267 9.53048 3.86548 9.64228C3.72093 9.72978 3.62301 9.7395 2.70444 9.7395C1.78586 9.7395 1.68794 9.72978 1.54339 9.64228C1.36621 9.53048 1.21233 9.26798 1.21233 9.07354V8.93743H2.70444H4.19654V9.07354ZM20.7262 11.0082C21.0853 11.5575 21.3884 12.0242 21.393 12.0534C21.4023 12.0777 20.7635 12.0971 19.7517 12.0971H18.0917V11.4652V10.8332H18.9637C19.7051 10.8332 19.845 10.8235 19.9196 10.7506C20.0222 10.6534 20.0268 10.5707 19.9289 10.4735C19.8683 10.4055 19.7051 10.3957 18.8658 10.3957C18.1477 10.3957 17.8539 10.4103 17.798 10.4589C17.7234 10.5124 17.7187 10.6193 17.728 11.4895L17.742 12.4617L19.8403 12.486L21.9386 12.5103L22.5634 12.6707C22.9084 12.7582 23.2348 12.8651 23.2815 12.9138C23.468 13.0839 23.5006 13.2686 23.5006 14.163V15.0137H22.7359C21.9992 15.0137 21.9665 15.0089 21.6775 14.8728C21.2998 14.6978 20.9734 14.6248 20.5491 14.6248C20.19 14.6248 19.6538 14.7561 19.346 14.9165C19.1875 15.004 19.0709 15.0137 18.2083 15.0137H17.2524V12.5103V10.0069H18.6653L20.0734 10.0117L20.7262 11.0082ZM2.05164 13.1908L1.6553 13.604H1.41283H1.16571V13.1908V12.7776H1.80451H2.44798L2.05164 13.1908ZM3.49712 13.1908L3.10078 13.604H2.65781H2.21484L2.61118 13.1908L3.00752 12.7776H3.45049H3.89346L3.49712 13.1908ZM4.91928 13.1908L4.49962 13.5992L4.09396 13.604C3.86548 13.604 3.68363 13.5894 3.68363 13.57C3.68363 13.5505 3.84683 13.361 4.04267 13.1568L4.40637 12.7776H4.87265L5.33893 12.7825L4.91928 13.1908ZM6.34144 13.1908L5.9451 13.604H5.50213H5.05916L5.4555 13.1908L5.85184 12.7776H6.29481H6.73778L6.34144 13.1908ZM7.78691 13.1908L7.39057 13.604H6.9476H6.50463L6.90097 13.1908L7.29731 12.7776H7.74028H8.18325L7.78691 13.1908ZM9.23238 13.1908L8.83605 13.604H8.39308H7.95011L8.34645 13.1908L8.74279 12.7776H9.18576H9.62872L9.23238 13.1908ZM10.6545 13.1908L10.2349 13.5992L9.81524 13.604H9.39558L9.79192 13.1908L10.1883 12.7776H10.6312H11.0742L10.6545 13.1908ZM12.0767 13.1908L11.6804 13.604H11.2374H10.7944L11.1908 13.1908L11.5871 12.7776H12.0301H12.473L12.0767 13.1908ZM13.5222 13.1908L13.1258 13.604H12.6829H12.2399L12.6362 13.1908L13.0326 12.7776H13.4756H13.9185L13.5222 13.1908ZM14.9677 13.1908L14.5713 13.604H14.1283H13.6854L14.0817 13.1908L14.4781 12.7776H14.921H15.364L14.9677 13.1908ZM21.1412 16.088C21.4723 16.2144 21.8313 16.5547 21.9852 16.8804C22.3116 17.5803 22.1764 18.363 21.6355 18.8685C21.2951 19.1893 20.964 19.306 20.4931 19.2817C19.8729 19.2477 19.3833 18.9025 19.1222 18.3241C18.959 17.9546 18.9497 17.347 19.1036 16.9922C19.4673 16.1706 20.3532 15.7769 21.1412 16.088Z" fill="white"/>
<path d="M9.75903 8.32984C9.37202 8.50483 9.34871 9.14163 9.72639 9.31663C9.97352 9.43815 10.3046 9.34579 10.4398 9.12219C10.5237 8.98122 10.5144 8.66525 10.4212 8.51942C10.3465 8.39789 10.0948 8.25692 9.96886 8.25692C9.93622 8.26178 9.84296 8.29095 9.75903 8.32984ZM10.1087 8.81108C10.1321 8.9326 10.0528 9.00066 9.93622 8.96177C9.84296 8.9326 9.80566 8.7965 9.87094 8.72358C9.93156 8.66039 10.0948 8.71872 10.1087 8.81108Z" fill="white"/>
<path d="M17.9565 13.0403C17.9238 13.0792 17.9052 13.1618 17.9145 13.225C17.9285 13.3319 17.9471 13.3368 18.2735 13.3368C18.5487 13.3368 18.6279 13.3222 18.6699 13.2493C18.7072 13.191 18.7072 13.1424 18.6699 13.0792C18.5999 12.9674 18.0404 12.9333 17.9565 13.0403Z" fill="white"/>
<path d="M20.1572 16.8173C20.0546 16.8707 19.9054 17.0068 19.8308 17.1138C19.7188 17.2839 19.7002 17.3617 19.7002 17.6388C19.7002 17.911 19.7188 17.9936 19.8308 18.1638C19.994 18.4263 20.2504 18.5624 20.5721 18.5624C21.1597 18.5527 21.57 18.0325 21.4441 17.4443C21.3135 16.8464 20.6934 16.5402 20.1572 16.8173ZM20.9498 17.2985C21.1363 17.5173 21.127 17.7895 20.9172 18.0082C20.8006 18.1297 20.7167 18.1735 20.6048 18.1735C20.2364 18.1735 19.9846 17.8235 20.0965 17.4638C20.2178 17.0895 20.6887 16.9923 20.9498 17.2985Z" fill="white"/>
<path d="M8.81275 15.5825C8.56562 15.6262 8.22058 15.7623 8.00609 15.8984C7.60508 16.1658 7.23206 16.7005 7.15745 17.1186L7.12481 17.2984H6.76111H6.39741L6.36477 17.1186C6.27618 16.6324 5.79591 16.02 5.29232 15.7623C5.03121 15.6311 4.97525 15.6214 4.45302 15.6214C3.93544 15.6214 3.87483 15.6311 3.6277 15.7575C2.38272 16.3943 2.09363 18.0324 3.03552 19.0727C3.46916 19.5539 4.12196 19.7824 4.7561 19.6755C5.57676 19.5442 6.22955 18.8831 6.39275 18.0227L6.4487 17.7359H6.76111H7.07352L7.12948 18.0227C7.33464 19.1164 8.3558 19.8748 9.37229 19.69C10.0344 19.5637 10.5893 19.1359 10.8784 18.5185C11.0136 18.222 11.0229 18.1588 11.0276 17.6873C11.0276 17.2644 11.0089 17.1234 10.9157 16.8755C10.6965 16.2679 10.0391 15.6991 9.46089 15.6214C9.10651 15.5727 8.93399 15.563 8.81275 15.5825ZM5.02188 16.0929C5.33895 16.2144 5.71664 16.5644 5.86585 16.8755C6.27152 17.7213 5.93579 18.7421 5.12913 19.1407C4.90997 19.2477 4.80739 19.2671 4.45302 19.2671C4.09864 19.2671 3.99606 19.2477 3.77691 19.1407C3.33394 18.9171 3.03552 18.5331 2.90962 18.0178C2.59721 16.7588 3.83286 15.6262 5.02188 16.0929ZM9.74532 16.1366C10.2163 16.37 10.538 16.8172 10.6406 17.3908C10.7385 17.9352 10.496 18.5817 10.0577 18.9463C9.44223 19.4518 8.49102 19.3887 7.94547 18.8102C7.15279 17.9692 7.42323 16.5595 8.4677 16.1026C8.84539 15.9373 9.36763 15.9519 9.74532 16.1366Z" fill="white"/>
<path d="M4.06618 16.7977C3.76776 16.9484 3.54395 17.3324 3.54395 17.6873C3.54861 17.8623 3.69782 18.1782 3.85169 18.3289C4.36926 18.8296 5.23189 18.5185 5.34379 17.7894C5.40441 17.381 5.17593 16.9387 4.8169 16.7831C4.61639 16.6908 4.25269 16.7005 4.06618 16.7977ZM4.70965 17.1866C5.04537 17.3907 5.04071 17.9206 4.70032 18.1053C4.34129 18.2998 3.96826 18.0616 3.96826 17.6387C3.96826 17.3907 4.02888 17.2838 4.22472 17.1769C4.4019 17.0845 4.54645 17.0845 4.70965 17.1866Z" fill="white"/>
<path d="M8.68239 16.7978C8.38397 16.9485 8.16016 17.3277 8.16016 17.6922C8.16016 17.911 8.37465 18.2853 8.58914 18.4311C8.83627 18.5964 9.21862 18.6207 9.47041 18.4846C9.68956 18.3679 9.92737 18.0374 9.96001 17.7992C10.016 17.3909 9.77815 16.9291 9.43311 16.7832C9.2326 16.6909 8.86891 16.7006 8.68239 16.7978ZM9.30255 17.177C9.65692 17.3568 9.67091 17.9159 9.31654 18.1054C8.96216 18.295 8.5565 18.0374 8.57048 17.6291C8.57515 17.4152 8.65908 17.2693 8.8316 17.1818C9.01345 17.0846 9.11137 17.0846 9.30255 17.177Z" fill="white"/>
</svg>
