<svg width="281" height="281" viewBox="0 0 281 281" fill="none" xmlns="http://www.w3.org/2000/svg">
<path d="M88.2689 69.4556C88.2689 69.4556 120.543 93.9464 169.608 48.1526C213.182 7.48329 248.761 71.6502 249.01 102.378C249.333 142.184 205.435 174.033 226.738 200.178C248.041 226.324 184.491 269.497 150.241 232.133C107.635 185.654 96.0925 223.418 71.8075 223.418C54.3778 223.418 18.5927 180.11 42.758 147.889C63.0927 120.776 52.0029 111.778 46.6312 102.378C38.8847 88.822 57.2828 52.0259 88.2689 69.4556Z" fill="#EAEBF0"/>
<path d="M140.487 125.143V216.026L69.9233 185.548L70.26 94.9928L140.487 125.143Z" fill="#2C3134"/>
<path d="M140.488 125.197V216.081L210.708 186.655V95.283L140.488 125.197Z" fill="#F5F8FA"/>
<path d="M140.487 125.143L211.051 95.5872L141.041 64.554L69.9233 94.8483L140.487 125.143Z" fill="#F5F8FA"/>
<path d="M96.5229 83.5174L166.817 114.114L167.456 136.411L187.124 128.295L186.529 105.858L114.155 76.0067L96.5229 83.5174Z" fill="#2C3134"/>
<path d="M162.815 157.805C163.929 157.805 164.832 156.156 164.832 154.123C164.832 152.089 163.929 150.441 162.815 150.441C161.701 150.441 160.797 152.089 160.797 154.123C160.797 156.156 161.701 157.805 162.815 157.805Z" fill="#2C3134"/>
<path d="M195.313 144.564C196.427 144.564 197.331 142.915 197.331 140.882C197.331 138.848 196.427 137.2 195.313 137.2C194.199 137.2 193.296 138.848 193.296 140.882C193.296 142.915 194.199 144.564 195.313 144.564Z" fill="#2C3134"/>
<path d="M174.504 177.243L173.194 176.734C176.097 169.262 179.736 165.146 184.012 164.499C188.102 163.881 191.548 166.699 192.798 168.275L191.697 169.148C190.832 168.058 187.805 165.347 184.222 165.889C180.533 166.446 177.173 170.372 174.504 177.243Z" fill="#2C3134"/>
</svg>
