<svg width="44" height="44" viewBox="0 0 44 44" fill="none" xmlns="http://www.w3.org/2000/svg">
<path d="M22.0003 31.1667C22.0003 36.2293 26.1044 40.3333 31.167 40.3333C36.2296 40.3333 40.3337 36.2293 40.3337 31.1667C40.3337 26.1041 36.2296 22 31.167 22C26.1044 22 22.0003 26.1041 22.0003 31.1667ZM22.0003 31.1667C22.0003 29.1027 22.6825 27.198 23.8337 25.6658V9.16667M22.0003 31.1667C22.0003 32.6798 22.367 34.1073 23.0162 35.3652C21.4717 36.6699 17.9044 37.5833 13.7503 37.5833C8.18145 37.5833 3.66699 35.9417 3.66699 33.9167V9.16667M23.8337 9.16667C23.8337 11.1917 19.3192 12.8333 13.7503 12.8333C8.18145 12.8333 3.66699 11.1917 3.66699 9.16667M23.8337 9.16667C23.8337 7.14162 19.3192 5.5 13.7503 5.5C8.18145 5.5 3.66699 7.14162 3.66699 9.16667M3.66699 25.6667C3.66699 27.6917 8.18145 29.3333 13.7503 29.3333C17.7635 29.3333 21.2291 28.4808 22.8522 27.2466M23.8337 17.4167C23.8337 19.4417 19.3192 21.0833 13.7503 21.0833C8.18145 21.0833 3.66699 19.4417 3.66699 17.4167" stroke="#F5F8FA" stroke-width="2" stroke-linecap="round" stroke-linejoin="round"/>
</svg>
