<svg width="24" height="24" viewBox="0 0 24 24" fill="none" xmlns="http://www.w3.org/2000/svg">
<path d="M19.75 7.75H15.25C14.9848 7.75 14.7304 7.64464 14.5429 7.45711C14.3554 7.26957 14.25 7.01522 14.25 6.75V2.25M19.75 7.75V20.75C19.75 21.0152 19.6446 21.2696 19.4571 21.4571C19.2696 21.6446 19.0152 21.75 18.75 21.75H5.25C4.98478 21.75 4.73043 21.6446 4.54289 21.4571C4.35536 21.2696 4.25 21.0152 4.25 20.75V3.25C4.25 2.98478 4.35536 2.73043 4.54289 2.54289C4.73043 2.35536 4.98478 2.25 5.25 2.25H14.25M19.75 7.75L14.25 2.25" stroke="#9CA3B0" stroke-linecap="round" stroke-linejoin="round"/>
</svg>
