<svg width="40" height="40" viewBox="0 0 40 40" fill="none" xmlns="http://www.w3.org/2000/svg">
<path d="M31.2049 0.00389214H15.8683C15.2324 0.00392182 14.6224 0.256385 14.1725 0.705824L11.5388 3.34157L8.90502 0.705824C8.68208 0.482102 8.41716 0.304591 8.12546 0.183469C7.83377 0.0623483 7.52103 0 7.20519 0C6.88935 0 6.57661 0.0623483 6.28492 0.183469C5.99322 0.304591 5.7283 0.482102 5.50536 0.705824L0.705824 5.50536C0.482102 5.7283 0.30459 5.99322 0.183469 6.28492C0.0623479 6.57661 0 6.88935 0 7.20519C0 7.52103 0.0623479 7.83377 0.183469 8.12547C0.30459 8.41716 0.482102 8.68208 0.705824 8.90503L3.34557 11.5348L0.711823 14.1685C0.488029 14.3905 0.310559 14.6547 0.189718 14.9458C0.0688764 15.2369 0.00707178 15.5491 0.00789184 15.8643V37.6002C0.00789184 38.2367 0.260723 38.8471 0.710767 39.2971C1.16081 39.7472 1.7712 40 2.40766 40H31.2049C31.8413 40 32.4517 39.7472 32.9017 39.2971C33.3518 38.8471 33.6046 38.2367 33.6046 37.6002V2.40366C33.6046 1.7672 33.3518 1.15681 32.9017 0.706767C32.4517 0.256724 31.8413 0.00389214 31.2049 0.00389214ZM1.84171 7.76914C1.76734 7.69485 1.70834 7.60662 1.66808 7.50951C1.62783 7.4124 1.60711 7.30831 1.60711 7.20319C1.60711 7.09807 1.62783 6.99398 1.66808 6.89687C1.70834 6.79976 1.76734 6.71154 1.84171 6.63725L6.64124 1.83771C6.71554 1.76334 6.80376 1.70434 6.90087 1.66408C6.99798 1.62383 7.10207 1.60311 7.20719 1.60311C7.31231 1.60311 7.4164 1.62383 7.51351 1.66408C7.61062 1.70434 7.69884 1.76334 7.77314 1.83771L10.4069 4.47146L4.47546 10.4029L1.84171 7.76914ZM32.0048 37.6002C32.0048 37.8124 31.9205 38.0159 31.7705 38.1659C31.6205 38.3159 31.417 38.4002 31.2049 38.4002H2.40766C2.19551 38.4002 1.99204 38.3159 1.84203 38.1659C1.69201 38.0159 1.60774 37.8124 1.60774 37.6002V15.8643C1.6081 15.6528 1.69223 15.4501 1.84171 15.3004L5.0414 12.1007L12.1027 5.0394L15.3024 1.83971C15.3766 1.76509 15.4648 1.70584 15.5619 1.66534C15.659 1.62485 15.7631 1.60392 15.8683 1.60374H31.2049C31.417 1.60374 31.6205 1.68801 31.7705 1.83803C31.9205 1.98804 32.0048 2.19151 32.0048 2.40366V37.6002ZM27.2052 7.20319C27.2052 7.41534 27.121 7.61881 26.9709 7.76882C26.8209 7.91884 26.6175 8.00311 26.4053 8.00311H18.4061C18.1939 8.00311 17.9905 7.91884 17.8405 7.76882C17.6905 7.61881 17.6062 7.41534 17.6062 7.20319C17.6062 6.99104 17.6905 6.78758 17.8405 6.63756C17.9905 6.48755 18.1939 6.40327 18.4061 6.40327H26.4053C26.6175 6.40327 26.8209 6.48755 26.9709 6.63756C27.121 6.78758 27.2052 6.99104 27.2052 7.20319ZM26.8853 19.042L18.1401 25.6014L26.8853 32.1608C26.9693 32.2238 27.0401 32.3028 27.0936 32.3931C27.1472 32.4835 27.1823 32.5836 27.1972 32.6876C27.2121 32.7916 27.2063 32.8975 27.1802 32.9992C27.1541 33.101 27.1083 33.1966 27.0453 33.2807C26.9822 33.3647 26.9033 33.4355 26.8129 33.489C26.7225 33.5425 26.6224 33.5777 26.5184 33.5926C26.4145 33.6074 26.3086 33.6017 26.2068 33.5756C26.105 33.5495 26.0094 33.5037 25.9254 33.4406L16.8063 26.6013L7.68714 33.4406C7.51742 33.5679 7.30408 33.6226 7.09406 33.5926C6.88404 33.5626 6.69454 33.4504 6.56725 33.2807C6.43996 33.1109 6.3853 32.8976 6.41531 32.6876C6.44531 32.4775 6.55751 32.2881 6.72724 32.1608L15.4724 25.6014L6.72724 19.042C6.6432 18.979 6.5724 18.9 6.51888 18.8097C6.46536 18.7193 6.43016 18.6192 6.41531 18.5152C6.40045 18.4112 6.40622 18.3053 6.43229 18.2036C6.45837 18.1018 6.50422 18.0062 6.56725 17.9221C6.63028 17.8381 6.70925 17.7673 6.79964 17.7138C6.89003 17.6603 6.99007 17.6251 7.09406 17.6102C7.19805 17.5954 7.30395 17.6011 7.40572 17.6272C7.50748 17.6533 7.60311 17.6991 7.68714 17.7622L16.8063 24.6015L25.9254 17.7622C26.0094 17.6991 26.105 17.6533 26.2068 17.6272C26.3086 17.6011 26.4145 17.5954 26.5184 17.6102C26.6224 17.6251 26.7225 17.6603 26.8129 17.7138C26.9033 17.7673 26.9822 17.8381 27.0453 17.9221C27.1083 18.0062 27.1541 18.1018 27.1802 18.2036C27.2063 18.3053 27.2121 18.4112 27.1972 18.5152C27.1823 18.6192 27.1472 18.7193 27.0936 18.8097C27.0401 18.9 26.9693 18.979 26.8853 19.042Z" fill="#F5F8FA"/>
</svg>
