<svg width="24" height="24" viewBox="0 0 24 24" fill="none" xmlns="http://www.w3.org/2000/svg">
<g clip-path="url(#clip0_3474_2853)">
<path d="M22.2239 0.0215511C22.1864 0.0403099 21.0937 0.457697 19.7993 0.959501L17.4451 1.86462L14.922 3.59983L12.4036 5.33035L12.2629 5.21311C12.0472 5.03021 11.8502 4.96455 11.5219 4.96455C11.2405 4.96455 11.1749 4.988 10.2651 5.42883L9.30365 5.89781L8.34225 5.73367C7.50279 5.58829 7.34803 5.57422 7.14168 5.62111C6.66332 5.72429 6.60235 5.78995 5.32674 7.61426C4.67487 8.54283 4.09803 9.34947 4.04175 9.40575C3.94796 9.50423 3.89168 9.51361 3.47429 9.51361C2.85055 9.51361 2.57855 9.59803 2.29716 9.87941C2.10957 10.0717 2.02516 10.2311 1.66405 11.0847C1.28887 11.957 1.24197 12.1024 1.24197 12.3509C1.24197 12.8386 1.49521 13.2138 1.97826 13.4577C2.26902 13.6031 2.38627 13.7297 2.38627 13.8891C2.38627 13.9642 1.85633 15.4649 1.20445 17.2189C0.505677 19.1042 0.0179423 20.497 0.00387305 20.6283C-0.0242655 20.9472 0.102358 21.2896 0.336845 21.5288C0.604161 21.8008 2.2784 22.6027 2.63951 22.6355C2.99594 22.6637 3.23042 22.5886 3.61029 22.3119C3.67126 22.265 4.07458 22.4104 5.81448 23.1139L7.94362 23.9768H8.3657C8.69867 23.9768 8.84406 23.9534 9.06916 23.8689C9.40214 23.7329 9.81953 23.3437 9.9696 23.0201C10.0212 22.9029 10.6918 21.0551 11.4609 18.9166C12.2301 16.7733 13.0555 14.5598 13.2946 13.9876C13.6651 13.1153 13.7355 12.9137 13.7355 12.698C13.7402 12.5244 13.6417 12.1024 13.4259 11.3379C13.2149 10.5969 13.1211 10.1936 13.1399 10.1139C13.1633 10.0342 13.3087 9.88879 13.576 9.69182C13.9981 9.3823 14.2279 9.09622 14.2795 8.82422C14.3123 8.66007 14.2842 8.25207 14.2279 8.07855C14.2044 7.99413 14.4952 7.78309 16.5775 6.34803L18.9552 4.7113L21.1687 3.85777C22.3881 3.38879 23.4526 2.95734 23.5324 2.89637C23.8419 2.66657 24.0435 2.19291 23.992 1.80366C23.9732 1.6911 23.8747 1.3722 23.7668 1.0955C23.5511 0.542112 23.3635 0.284176 23.0493 0.124725C22.8617 0.0262394 22.3646 -0.0347271 22.2239 0.0215511ZM22.7586 0.893845C22.8758 1.00171 23.2088 1.78959 23.2088 1.96311C23.2088 2.12725 23.0212 2.2867 22.646 2.42739C22.4396 2.50712 22.2521 2.57277 22.2286 2.57277C22.1864 2.57277 21.6565 1.30185 21.6424 1.17054C21.6377 1.10488 22.3599 0.795359 22.5381 0.79067C22.5944 0.79067 22.6929 0.837568 22.7586 0.893845ZM21.1453 2.12725C21.3047 2.53057 21.422 2.87292 21.4032 2.89168C21.3891 2.91044 21.1171 3.02299 20.8029 3.14493L20.2308 3.36065L19.9635 2.68064C19.8134 2.30546 19.6868 1.97249 19.6821 1.93028C19.6727 1.88338 19.8368 1.79428 20.2542 1.63482C20.5778 1.5082 20.8451 1.40503 20.8451 1.40503C20.8498 1.40034 20.9858 1.72862 21.1453 2.12725ZM19.199 2.91513C19.3444 3.29969 19.4476 3.62797 19.4288 3.65142C19.3726 3.70301 18.5143 4.04067 18.4956 4.01722C18.4252 3.94687 17.8671 2.59622 17.8953 2.56809C17.9609 2.50243 18.8707 2.16477 18.8989 2.19291C18.913 2.20698 19.049 2.53526 19.199 2.91513ZM17.5013 3.77335C17.6796 4.17667 17.8062 4.52371 17.7827 4.54247C17.6749 4.63627 16.962 5.10993 16.9526 5.09586C16.8635 4.99269 16.0757 3.77804 16.0897 3.76866C16.1272 3.73114 17.1402 3.04644 17.159 3.04175C17.1731 3.04175 17.3278 3.37003 17.5013 3.77335ZM15.8459 4.8942C16.0757 5.24125 16.2679 5.54139 16.2679 5.56015C16.2632 5.59298 15.3628 6.23078 15.3159 6.23078C15.3065 6.23078 15.1002 5.93533 14.8563 5.56953C14.5093 5.04428 14.4342 4.89889 14.4858 4.87075C14.5233 4.84731 14.7344 4.70192 14.9548 4.54716C15.1752 4.3924 15.3675 4.26578 15.3863 4.26109C15.405 4.26109 15.6114 4.54716 15.8459 4.8942ZM14.2044 6.01974C14.4342 6.36679 14.6265 6.66693 14.6265 6.68569C14.6218 6.71852 14.2467 6.99052 13.8715 7.23439L13.7495 7.30943L13.3134 6.65286C13.0742 6.29175 12.8866 5.98692 12.9007 5.97285C12.9617 5.91188 13.7167 5.39132 13.7448 5.38663C13.7636 5.38663 13.97 5.6727 14.2044 6.01974ZM11.7986 5.86498C11.8502 5.92595 12.2582 6.51686 12.699 7.17811C13.3462 8.15358 13.501 8.41621 13.501 8.54752C13.501 8.72104 13.4494 8.77263 12.9054 9.19471C12.549 9.46671 12.3754 9.7481 12.3426 10.1092C12.3239 10.3437 12.3614 10.5266 12.6287 11.4599C12.7975 12.0508 12.9382 12.5948 12.9382 12.6651C12.9382 12.8574 12.1503 14.677 12.0096 14.8083C11.9205 14.8881 11.8549 14.9115 11.747 14.8928C11.6673 14.8787 10.7059 14.5035 9.60849 14.058C7.47934 13.1951 7.30113 13.1435 6.86498 13.2654C6.61642 13.3358 6.3069 13.589 6.18966 13.8235C6.14276 13.9173 5.44399 15.6806 4.63735 17.7441C3.83071 19.8076 3.14132 21.5522 3.10849 21.6226C3.02407 21.7914 2.87869 21.8617 2.69579 21.8336C2.61607 21.8195 2.17992 21.6272 1.72501 21.4068C1.01217 21.0598 0.885547 20.9801 0.838649 20.8581C0.796441 20.7549 0.791751 20.6752 0.82458 20.5674C0.852718 20.4829 1.38735 19.0338 2.01109 17.3455C3.24918 14.0205 3.28201 13.9079 3.11787 13.4858C3.01938 13.2185 2.75676 12.9606 2.4191 12.7917C2.20806 12.6839 2.12833 12.6135 2.07674 12.4869C2.0064 12.3228 2.01109 12.3087 2.38627 11.4223C2.59731 10.9252 2.80835 10.4797 2.85993 10.4281C2.93966 10.3484 3.03345 10.3296 3.54933 10.3109C4.09334 10.2874 4.16368 10.278 4.36065 10.1608C4.48259 10.0904 4.62797 9.97321 4.68894 9.89817C4.7499 9.82313 5.31736 9.02119 5.95048 8.11606C6.60704 7.17342 7.14637 6.4512 7.20733 6.41837C7.29175 6.38086 7.54499 6.40899 8.29536 6.53562C9.11606 6.67162 9.31303 6.69507 9.49124 6.65286C9.60849 6.62472 10.0775 6.41837 10.5371 6.18389C11.4422 5.72898 11.6298 5.68208 11.7986 5.86498ZM8.37508 14.4238C8.95192 14.6489 9.4209 14.8505 9.4209 14.8646C9.4209 14.8787 9.1911 14.9256 8.90971 14.9678C8.62833 15.01 8.2766 15.085 8.12652 15.1413C7.54031 15.343 6.95878 15.8635 6.6727 16.4357C6.38663 17.0172 6.37256 17.3127 6.51325 19.4043C6.56484 20.164 6.59766 20.7925 6.58829 20.8065C6.54608 20.8441 4.63735 20.0562 4.63735 19.9999C4.63735 19.9718 5.14384 18.6492 5.76289 17.0641C6.4898 15.207 6.92595 14.1518 6.98691 14.0955C7.04319 14.0533 7.14168 14.0158 7.21202 14.0158C7.27768 14.0111 7.80293 14.1987 8.37508 14.4238ZM11.203 15.5634C11.2499 15.5915 11.3953 15.6384 11.5219 15.6713L11.7564 15.7275L10.523 19.1604C9.84766 21.0457 9.24738 22.6684 9.18641 22.7575C9.03165 23.0107 8.70805 23.1795 8.38915 23.1842C8.15935 23.1842 7.89673 23.0904 6.11462 22.3682C5.00784 21.9227 4.08396 21.5428 4.06051 21.5241C4.04175 21.5053 4.09334 21.3318 4.17306 21.1348L4.31845 20.7784L4.48728 20.8487C5.56592 21.3036 7.78886 22.1806 7.9108 22.2041C8.10777 22.2416 8.42667 22.1244 8.5955 21.9461C8.68929 21.8477 8.98475 21.0832 9.84297 18.6821C10.462 16.9609 10.9685 15.5446 10.9685 15.5353C10.9685 15.4977 11.1186 15.5165 11.203 15.5634ZM10.0775 15.6337C10.0775 15.6525 10.0118 15.8448 9.93208 16.0746L9.79139 16.4873L9.29427 16.5435C8.57205 16.628 8.30942 16.764 8.10308 17.1673C7.99052 17.3924 7.99052 17.5659 8.11246 19.3574C8.21094 20.8018 8.21094 20.9144 8.06556 21.2943L8.01866 21.4209L7.7701 21.3224C7.6341 21.2661 7.4981 21.2005 7.46996 21.1723C7.4043 21.1067 7.19795 17.8989 7.22609 17.4252C7.2683 16.8062 7.65286 16.2528 8.23439 15.9761C8.58612 15.8119 10.0775 15.5353 10.0775 15.6337ZM9.44903 17.4252C9.28958 17.9176 8.9144 18.8978 8.89564 18.865C8.88157 18.8415 8.85344 18.5273 8.83468 18.1662C8.79716 17.3783 8.79716 17.3736 9.31772 17.3502C9.44903 17.3455 9.46779 17.3596 9.44903 17.4252Z" fill="white"/>
<path d="M21.5058 7.66581C21.3508 7.72292 21.2012 7.89425 20.8613 8.40823C20.0509 9.62928 19.6484 10.679 19.6402 11.5791C19.6375 11.9653 19.6973 12.2182 19.8659 12.5418C20.1297 13.0477 20.6301 13.4474 21.1849 13.5916C21.8947 13.7792 22.6616 13.5644 23.1864 13.0341C23.6651 12.5527 23.8745 11.9164 23.7847 11.2256C23.6732 10.3799 23.268 9.43076 22.5773 8.39735C22.2591 7.916 22.134 7.76371 22.0089 7.70117C21.862 7.62774 21.6499 7.61142 21.5058 7.66581ZM21.8022 8.11725C21.824 8.13628 21.9409 8.29401 22.0606 8.46534C22.9526 9.74894 23.4475 11.0543 23.3224 11.7994C23.1919 12.5718 22.5773 13.1374 21.8104 13.1891C21.3453 13.219 20.9157 13.0531 20.5703 12.7105C20.2358 12.3787 20.108 12.0632 20.108 11.5791C20.108 10.7796 20.5295 9.72174 21.3154 8.56596C21.6363 8.09277 21.6989 8.03566 21.8022 8.11725Z" fill="white"/>
</g>
<defs>
<clipPath id="clip0_3474_2853">
<rect width="24" height="24" fill="white"/>
</clipPath>
</defs>
</svg>
