<svg width="24" height="24" viewBox="0 0 24 24" fill="none" xmlns="http://www.w3.org/2000/svg">
<path d="M19.4148 4.24023C19.9848 4.24023 20.4148 4.74023 20.1848 5.67023L17.3948 18.8202C17.1998 19.7552 16.6348 19.9802 15.8548 19.5452L9.1998 14.6302C9.17399 14.6117 9.15297 14.5873 9.13846 14.5591C9.12396 14.5308 9.11639 14.4995 9.11639 14.4677C9.11639 14.436 9.12396 14.4047 9.13846 14.3764C9.15297 14.3481 9.17399 14.3238 9.1998 14.3052L16.8848 7.36523C17.2348 7.05523 16.8098 6.90523 16.3498 7.18523L6.7048 13.2702C6.67555 13.2893 6.64234 13.3015 6.60769 13.3058C6.57303 13.3101 6.53785 13.3065 6.5048 13.2952L2.4098 12.0002C1.4998 11.7352 1.4998 11.1102 2.6148 10.6652L18.9998 4.34523C19.1299 4.2834 19.2709 4.24772 19.4148 4.24023Z" stroke="black" stroke-width="0.8" stroke-linecap="round" stroke-linejoin="round"/>
</svg>
