<svg width="24" height="24" viewBox="0 0 24 24" fill="none" xmlns="http://www.w3.org/2000/svg">
<g clip-path="url(#clip0_3474_2864)">
<path d="M7.85177 0.215685C5.72365 0.595373 3.83927 2.23131 2.53615 4.82819C1.73927 6.42662 1.2799 8.0485 1.02677 10.1954C0.942395 10.8751 0.942395 13.1251 1.02208 13.8047C1.2799 15.9891 1.78146 17.7235 2.62521 19.3454C3.91896 21.8485 5.78458 23.4235 7.87521 23.7844C8.51271 23.8922 15.469 23.8969 16.1065 23.7891C19.0221 23.2922 21.4924 20.386 22.5471 16.2235C22.894 14.8407 23.0393 13.6032 23.0393 12.0001C23.0393 9.69381 22.6924 7.78131 21.933 5.86412C20.6768 2.70944 18.5299 0.628185 16.1065 0.210999C15.5111 0.107872 8.42833 0.11256 7.85177 0.215685ZM12.3893 0.88131C12.4596 0.909435 12.4408 0.942247 12.2721 1.08287C11.6252 1.62193 11.0158 1.91725 10.1018 2.14225C9.44083 2.30631 9.08927 2.461 9.00021 2.62506C8.97677 2.67193 8.95333 2.7235 8.95333 2.73756C8.95333 2.75162 9.25802 2.76568 9.63302 2.76568C10.008 2.76568 10.3127 2.77975 10.3127 2.79381C10.3127 2.80787 10.2611 2.88756 10.2002 2.96725C10.1393 3.05162 9.9799 3.30006 9.84865 3.52037C9.46427 4.17662 9.2299 4.30787 8.60177 4.2235C7.9174 4.12506 7.3174 4.36881 7.25646 4.75787C7.2424 4.83756 7.28458 4.861 7.54708 4.90319C7.71583 4.936 8.10021 4.95944 8.4049 4.96412C8.94396 4.96881 8.95802 4.9735 8.9299 5.06725C8.91115 5.11881 8.78458 5.42819 8.64865 5.75631L8.40021 6.35162L7.42052 6.37506L6.44552 6.3985L6.3424 6.67975C6.28615 6.83444 6.23927 6.98912 6.23927 7.01725C6.23458 7.06412 6.35646 7.07819 6.69396 7.08287C6.9424 7.08756 7.37365 7.10162 7.64552 7.12037L8.14708 7.1485L7.97365 7.85162L7.80021 8.55475L6.79708 8.57819L5.79396 8.60162L5.76115 8.76569C5.7424 8.85475 5.71427 9.01881 5.69552 9.12662L5.6674 9.32819H6.66583H7.66427L7.59396 10.0172L7.52365 10.711L6.5299 10.7391C5.98146 10.7532 5.52677 10.7719 5.51271 10.786C5.50333 10.7954 5.48458 10.9594 5.47521 11.1422L5.45177 11.4844H6.18771C6.59083 11.4844 7.0549 11.4985 7.21427 11.5126L7.50021 11.5454V12.2391V12.9376H6.4924H5.48458V13.0969C5.48458 13.1813 5.49865 13.3501 5.51271 13.4719L5.54552 13.6876H6.54396H7.5424L7.56583 13.8376C7.59396 14.0016 7.73458 15.0329 7.73458 15.0704C7.73458 15.0844 7.3174 15.0938 6.81115 15.0938C6.30021 15.0938 5.8549 15.1126 5.8174 15.136C5.76115 15.1735 5.76115 15.2251 5.8174 15.5016L5.88771 15.8204L6.87677 15.8438C7.42052 15.8579 7.87521 15.8766 7.88927 15.8907C7.9174 15.9235 8.25021 17.1704 8.25021 17.2407C8.25021 17.2782 7.9924 17.2969 7.29396 17.3063L6.3424 17.3204L6.48302 17.686L6.62365 18.0469H7.58927H8.5549L8.86427 18.7407L9.17833 19.4297L8.31115 19.4579C7.83771 19.4766 7.43458 19.5047 7.41583 19.5235C7.33615 19.5985 7.58927 19.9032 7.8424 20.0344C8.07208 20.1516 8.17052 20.1704 8.71427 20.2032C9.26271 20.2313 9.35646 20.2501 9.59552 20.3719C9.8299 20.4891 9.9049 20.5688 10.1815 20.9766C10.3596 21.2344 10.5471 21.4922 10.5986 21.5438L10.6971 21.6469L10.1861 21.6751C9.90958 21.6938 9.63771 21.7126 9.58615 21.7172C9.53927 21.7219 10.158 22.0219 10.9643 22.3829C11.7705 22.7391 12.4408 23.0532 12.4502 23.0719C12.4643 23.0907 12.244 23.1094 11.9627 23.1094C9.25333 23.1094 7.02677 21.1688 5.72833 17.6719C4.3924 14.086 4.38302 9.99381 5.70021 6.37506C5.93927 5.7235 6.55333 4.50475 6.93302 3.93756C7.94552 2.40944 9.2674 1.39693 10.7205 1.03131C11.3065 0.88131 12.1877 0.806311 12.3893 0.88131ZM8.64865 1.111C6.81583 2.32975 5.34865 4.56569 4.57521 7.32194C4.1299 8.89694 3.96583 10.1672 3.96583 12.0001C3.96583 12.9891 3.98458 13.5141 4.04552 14.0157C4.53302 18.0047 6.2299 21.2766 8.64865 22.8891L8.97677 23.1094H8.69552C8.03458 23.1094 7.19083 22.8938 6.53927 22.5563L6.25802 22.411L6.55333 22.4063H6.84396L6.5299 22.0313L6.21115 21.661L5.70958 21.6563H5.20802L4.82365 21.2391C4.61271 21.0047 4.35021 20.6954 4.23771 20.5454L4.03146 20.2735L4.6174 20.2594C4.94083 20.2547 5.20333 20.236 5.20333 20.2266C5.20333 20.2126 5.12365 20.0485 5.0299 19.8516L4.85646 19.5001H4.18615H3.51583L3.3424 19.1579C3.24865 18.9751 3.08927 18.6516 2.99552 18.4454L2.82208 18.0704L3.51583 18.0563L4.2049 18.0422L4.07833 17.6813L3.94708 17.3204L3.24396 17.3063L2.53615 17.2922L2.4424 17.0016C2.30646 16.5797 2.15646 16.0219 2.15646 15.9282C2.15646 15.8532 2.2174 15.8438 2.85958 15.8438C3.65646 15.8438 3.60021 15.886 3.50177 15.3985L3.44083 15.1172L2.70958 15.1032C2.06271 15.0938 1.97365 15.0797 1.95021 15.0094C1.9174 14.9063 1.78146 13.9032 1.78146 13.7813C1.78146 13.6922 1.81896 13.6876 2.53615 13.6876H3.29083L3.26271 13.5797C3.24865 13.5235 3.23458 13.3547 3.23458 13.2047V12.9376H2.48927C1.85177 12.9376 1.73927 12.9282 1.71583 12.8626C1.70177 12.8204 1.68771 12.4969 1.68771 12.136V11.4844H2.43302H3.17833L3.19708 11.1422C3.21115 10.9594 3.21115 10.7907 3.20177 10.7672C3.1924 10.7485 2.8549 10.7344 2.45646 10.7344C1.61271 10.7344 1.69708 10.8329 1.8049 9.961C1.8424 9.65162 1.87521 9.38444 1.87521 9.361C1.87521 9.34225 2.21271 9.32819 2.62521 9.32819H3.37052L3.39865 9.15006C3.4174 9.05631 3.44552 8.88756 3.46427 8.77506L3.50646 8.57819H2.76583H2.02521L2.0674 8.37662C2.09083 8.26881 2.17521 7.94069 2.2549 7.65006L2.40021 7.12506H3.1174H3.83458L3.93302 6.83444C4.09708 6.34694 4.13458 6.37506 3.35177 6.37506C2.97677 6.37506 2.67208 6.361 2.67208 6.34694C2.67208 6.30006 3.0049 5.51725 3.14552 5.24537L3.28146 4.96881H3.95177H4.62208L4.78146 4.63131C4.87052 4.4485 4.9549 4.27975 4.95958 4.25631C4.96896 4.23756 4.70177 4.21881 4.36427 4.21881C4.02677 4.21881 3.75021 4.20006 3.75021 4.18131C3.75021 4.11568 4.23302 3.44069 4.52833 3.09381L4.8049 2.76568H5.34396H5.88302L6.1549 2.41412C6.30021 2.22194 6.42208 2.05787 6.42208 2.04381C6.42208 2.02975 6.24865 2.01568 6.03771 2.00631L5.64865 1.99225L5.98615 1.76725C6.80177 1.2235 7.75802 0.909435 8.62521 0.895372L8.97677 0.890686L8.64865 1.111ZM16.0361 0.960999C18.4971 1.39225 20.6393 3.83912 21.6752 7.39225C22.4111 9.9235 22.5049 12.7547 21.9565 15.4688C21.4361 18.0094 20.2174 20.3626 18.7455 21.6563C17.1752 23.0391 15.4596 23.4376 13.7065 22.8235C12.1502 22.2844 10.7674 20.8876 9.7549 18.8438C9.04708 17.4094 8.62052 15.9704 8.35802 14.1094C8.24083 13.2704 8.24083 10.7297 8.35802 9.89069C8.62052 8.02975 9.04708 6.59069 9.7549 5.15631C11.269 2.10475 13.6174 0.534435 16.0361 0.960999Z" fill="white"/>
<path d="M15.1407 2.73286C14.9625 2.82193 14.8828 3.0188 14.9532 3.19224C15.0328 3.37974 15.0891 3.40318 15.6328 3.46411C16.2141 3.53443 16.7625 3.71724 17.2641 4.01724C17.761 4.30786 18.6235 5.1563 19.0172 5.74224C20.0907 7.3313 20.7 9.34693 20.7985 11.6391C20.8266 12.2954 20.836 12.3563 20.9344 12.4547C21.0844 12.6047 21.3 12.5954 21.4547 12.4407L21.5766 12.3188L21.5485 11.6251C21.4125 8.49849 20.3672 5.84068 18.6047 4.14849C17.7141 3.29068 16.8047 2.84068 15.736 2.72349C15.2016 2.66255 15.2813 2.66255 15.1407 2.73286Z" fill="white"/>
<path d="M14.9299 5.13751C14.8784 5.14689 14.719 5.1797 14.5784 5.20782C13.6877 5.38595 12.6565 6.16876 12.0002 7.16251C9.5065 10.9219 10.5049 17.2266 13.8518 18.9047C14.344 19.1531 14.7096 19.2375 15.3049 19.2375C15.8862 19.2422 16.2799 19.1438 16.8331 18.8672C17.2034 18.6797 17.7706 18.2344 18.0706 17.8922C19.0362 16.8047 19.7206 15.1125 19.9221 13.3359C19.9831 12.7922 19.9831 11.5828 19.9221 11.0391C19.7206 9.25782 19.0362 7.57501 18.0612 6.47345C17.5737 5.92033 16.8752 5.46564 16.1956 5.2547C15.8815 5.15626 15.1362 5.08595 14.9299 5.13751ZM14.644 6.4547C14.4143 7.52814 14.0581 8.28282 13.5237 8.85001C13.3362 9.04689 13.069 9.27658 12.9331 9.36095C12.6284 9.54376 12.1737 9.66564 11.8877 9.64689L11.6815 9.63282L11.8362 9.17345C12.3565 7.64064 13.2659 6.50626 14.3206 6.07032C14.7799 5.88282 14.7752 5.87345 14.644 6.4547ZM16.5002 6.16407C17.2502 6.53907 17.9206 7.30783 18.4268 8.36251C18.6706 8.87345 18.9237 9.59064 18.8721 9.6422C18.8206 9.69845 18.2956 9.57189 18.0143 9.43595C17.6815 9.27658 17.0627 8.67189 16.8377 8.28751C16.5096 7.73439 16.219 6.90001 16.1018 6.1922C16.069 5.99533 16.0737 5.99064 16.1768 6.02345C16.2377 6.0422 16.3831 6.10783 16.5002 6.16407ZM15.8112 7.9172C16.1065 8.62501 16.6174 9.34689 17.1002 9.72657C17.6252 10.1484 18.2815 10.4063 18.8299 10.4063C19.0549 10.4063 19.0784 10.4156 19.1065 10.5234C19.1299 10.6172 19.0831 10.7016 18.8393 10.9922C18.0987 11.8641 17.6487 12.9563 17.4799 14.2734C17.4049 14.8547 17.4518 16.0641 17.5737 16.6641C17.6299 16.9219 17.6721 17.1609 17.6721 17.1938C17.6721 17.2313 17.5268 17.1234 17.3487 16.9594C16.9784 16.6219 16.6362 16.4016 16.2377 16.2563C16.0081 16.1719 15.8627 16.1531 15.3987 16.1531C14.9346 16.1531 14.7893 16.1719 14.5596 16.2563C14.1471 16.4063 13.8143 16.6219 13.4159 16.9922C13.2096 17.1844 13.0784 17.2781 13.0924 17.2266C13.2706 16.6641 13.3784 15.6281 13.3456 14.8594C13.3127 14.0859 13.2143 13.5328 13.0081 12.9047C12.7268 12.0656 12.4174 11.5219 11.8315 10.8563C11.6393 10.636 11.4846 10.4438 11.4846 10.4297C11.4846 10.4156 11.6487 10.4063 11.8502 10.4063C13.0784 10.4016 14.1143 9.65158 14.8268 8.25001C15.0049 7.89376 15.2909 7.06876 15.3565 6.73126C15.3893 6.55314 15.394 6.56251 15.5393 7.08282C15.619 7.37814 15.7409 7.75314 15.8112 7.9172ZM11.5221 11.6391C11.7096 11.8406 12.0846 12.5156 12.2346 12.9281C12.4643 13.5656 12.5674 14.1047 12.5956 14.8641C12.6237 15.5438 12.5487 16.4719 12.4643 16.5281C12.4081 16.5609 11.9909 15.675 11.8127 15.1453C11.6299 14.6016 11.4565 13.7719 11.3909 13.1297C11.3346 12.5531 11.3299 11.5313 11.3815 11.5313C11.4049 11.5313 11.4659 11.5781 11.5221 11.6391ZM19.2424 12.5625C19.1815 13.8094 18.9331 14.8875 18.4549 15.9516C18.244 16.4297 18.2112 16.3359 18.2112 15.1969C18.2112 14.1281 18.2627 13.7813 18.5252 13.0313C18.6893 12.5672 18.7924 12.3563 19.0268 11.9906L19.1956 11.7234L19.2331 11.8734C19.2518 11.9578 19.2565 12.2672 19.2424 12.5625ZM16.1768 17.0484C16.3596 17.1328 16.6081 17.3063 16.8002 17.4891L17.119 17.7844L16.9643 17.9203C16.594 18.2297 15.8018 18.5156 15.3049 18.5156C14.8456 18.5156 14.0299 18.2344 13.6971 17.9672L13.5893 17.8781L13.9409 17.5406C14.4893 17.0203 14.8456 16.8703 15.469 16.8891C15.8018 16.8984 15.9237 16.9266 16.1768 17.0484Z" fill="white"/>
<path d="M14.8734 9.74062C14.0672 10.0266 13.5469 10.9875 13.5469 12.1875C13.5469 13.0031 13.7859 13.7062 14.2219 14.1891C14.5359 14.5359 14.8781 14.6953 15.3047 14.6953C15.7266 14.6906 16.0031 14.5687 16.3266 14.2359C16.8094 13.7437 17.0344 13.0969 17.0344 12.1875C17.0391 11.2875 16.8141 10.6359 16.3266 10.1391C15.9094 9.7125 15.3703 9.5625 14.8734 9.74062ZM15.6984 10.5844C16.1812 10.9781 16.4297 11.9812 16.2422 12.7922C16.0031 13.8047 15.3516 14.25 14.8406 13.7531C14.2641 13.1953 14.1141 11.8828 14.5312 11.0625C14.8453 10.4531 15.3 10.2609 15.6984 10.5844Z" fill="white"/>
<path d="M9.15508 11.9344L9.0332 12.0563L9.06133 12.8391C9.19727 16.5516 10.8895 19.9172 13.2285 21.1407C13.8379 21.4594 14.2504 21.586 14.8973 21.6563C15.4879 21.7172 15.6566 21.6375 15.6566 21.286C15.6566 21.061 15.4926 20.9625 15.0707 20.925C13.3691 20.7797 11.9207 19.5657 10.8988 17.4235C10.2426 16.05 9.87695 14.5032 9.81133 12.8203C9.7832 12.0844 9.77852 12.0703 9.65195 11.9438C9.48789 11.7797 9.31445 11.775 9.15508 11.9344Z" fill="white"/>
</g>
<defs>
<clipPath id="clip0_3474_2864">
<rect width="24" height="24" fill="white"/>
</clipPath>
</defs>
</svg>
