<svg width="24" height="24" viewBox="0 0 24 24" fill="none" xmlns="http://www.w3.org/2000/svg">
<path d="M4.04706 5.35561C3.91059 5.40806 3.73647 5.53682 3.55294 5.72279L3.26588 6.01368L2.76235 7.40135C2.26824 8.75087 2.24941 8.79379 2.11294 8.8224C1.85412 8.87486 1.44 9.11329 1.17647 9.35649C0.644706 9.86196 0.432941 10.4151 0.428235 11.3164C0.423529 11.8123 0.418824 11.8552 0.334118 11.8552C0.282353 11.8552 0.188235 11.922 0.122353 12.0031C0.00941176 12.1366 0 12.1843 0 12.5801C0 12.9902 0.00470588 13.014 0.136471 13.1475L0.272941 13.2858H1.10118H1.92941L2.06588 13.5576C2.14118 13.7102 2.29176 13.9344 2.4 14.0584L2.59765 14.2872H1.86353C0.889412 14.2872 0.941176 14.2396 0.941176 15.1933C0.941176 15.9801 0.978823 16.1566 1.2 16.3282C1.28 16.3902 1.43059 16.4427 1.60471 16.4617L1.88235 16.4951V17.0101C1.88235 17.754 1.83059 17.7207 2.98353 17.7207H3.89176L3.92471 17.9162C3.96706 18.1832 4.15059 18.5647 4.35294 18.8031C5.16235 19.7616 6.80471 19.6901 7.49647 18.6649C7.66118 18.4217 7.85882 17.9496 7.85882 17.7922C7.85882 17.735 7.93882 17.7207 8.32941 17.7207C8.79529 17.7207 8.8 17.7207 8.8 17.8351C8.8 17.9066 8.85647 17.9972 8.94588 18.0735L9.08706 18.1975H11.3506H13.6094L13.7459 18.0592C13.8212 17.9829 13.8824 17.8733 13.8824 17.8208C13.8824 17.7207 13.8918 17.7207 15.5482 17.7207H17.2094L17.2424 17.9019C17.2565 18.002 17.3365 18.2166 17.4165 18.3787C18.0094 19.5804 19.6094 19.8475 20.5882 18.9081C20.8612 18.6458 21.0918 18.2309 21.1529 17.8971L21.1859 17.7207H22.2306C22.8 17.7207 23.3459 17.7016 23.4306 17.673C23.7412 17.5824 24 17.2438 24 16.9243C24 16.662 23.6847 14.0011 23.5953 13.529C23.5576 13.3097 23.4824 13.0474 23.4353 12.952C23.2847 12.6564 22.9271 12.375 22.3718 12.1223C22.0894 11.9935 21.8165 11.86 21.76 11.8266C21.7082 11.7933 21.4071 11.3498 21.0918 10.8395C20.4988 9.88104 20.3247 9.67122 19.9576 9.49955C19.7506 9.40417 19.6565 9.3994 17.8447 9.3851C16.1788 9.37079 15.9294 9.38033 15.8306 9.44709L15.7176 9.51862V12.7374C15.7176 15.5652 15.7082 15.9563 15.6471 15.9563C15.5859 15.9563 15.5765 15.8418 15.5765 15.2171C15.5765 14.54 15.5671 14.4685 15.4824 14.3826C15.3929 14.292 15.3271 14.2872 14.0235 14.2872H12.6588L12.8941 13.9916C13.0212 13.8295 13.1624 13.6053 13.2047 13.4909L13.2847 13.2858H14.1506H15.0212L15.1576 13.1475C15.2894 13.014 15.2941 12.9902 15.2941 12.5705C15.2941 12.1366 15.2941 12.1318 15.1341 11.9697C14.9976 11.8314 14.9741 11.7742 14.9506 11.4833C14.8565 10.3341 14 9.24204 12.9176 8.88916L12.5788 8.77948L11.7835 7.38227C11.3459 6.60976 10.9082 5.88492 10.8047 5.77048C10.7059 5.65126 10.5129 5.49867 10.3812 5.42714L10.1412 5.29838L7.2 5.28885C4.60706 5.28408 4.23529 5.28885 4.04706 5.35561ZM10.1459 5.86585C10.2776 5.92784 10.4235 6.03275 10.4753 6.09474C10.5224 6.16151 10.9459 6.88157 11.4118 7.697C12.2918 9.24204 12.2824 9.2325 12.64 9.30403C12.7812 9.33264 12.7906 9.34695 12.8188 9.6283C12.8612 10.0241 13.0024 10.3054 13.2282 10.458C13.3318 10.5248 13.6188 10.6488 13.8729 10.7346C14.3059 10.8777 14.3341 10.892 14.3859 11.0541C14.4141 11.1495 14.4565 11.3545 14.4753 11.5167L14.5082 11.8076H13.8635H13.2235L13.1341 11.6264C12.8141 10.9874 12.0424 10.52 11.3082 10.52C10.5318 10.52 9.71294 10.9969 9.44 11.6073L9.35059 11.8076H7.62823H5.90588L5.78824 11.5834C5.46353 10.9587 4.70118 10.52 3.95294 10.52C3.22353 10.52 2.49882 10.9397 2.15529 11.5548L2.01412 11.8076H1.45412H0.894118V11.407V11.0064L1.22824 10.9874C1.54353 10.9683 1.57176 10.9587 1.72235 10.7918L1.88235 10.6154V10.0193V9.42325L2.04706 9.35649C2.14118 9.31357 2.28706 9.27065 2.37647 9.25158C2.46118 9.23727 2.56471 9.18958 2.60235 9.14667C2.64 9.09898 2.89882 8.43137 3.18118 7.65886C3.64235 6.39517 3.71294 6.23304 3.88235 6.06136C3.98588 5.95169 4.14588 5.84201 4.23529 5.8134C4.34824 5.78001 5.27529 5.76094 7.15294 5.75617L9.90588 5.7514L10.1459 5.86585ZM13.8306 10.0622C14.0141 10.253 13.9624 10.2816 13.6706 10.1433C13.44 10.0384 13.3741 9.9621 13.3318 9.75228L13.3035 9.59492L13.4871 9.74275C13.5859 9.82381 13.7459 9.96687 13.8306 10.0622ZM1.35529 10.4771C1.32235 10.501 1.22353 10.52 1.14353 10.52C0.997647 10.52 0.992941 10.5153 1.04 10.3865C1.06353 10.315 1.15294 10.1576 1.23765 10.0289L1.38824 9.80474L1.40235 10.1242C1.41176 10.3436 1.39765 10.4533 1.35529 10.4771ZM19.7788 9.97641C20.0329 10.1099 20.1176 10.2148 20.7341 11.2115L21.3365 12.1747L22.0424 12.5276L22.7529 12.8757L22.2729 12.9043C21.5765 12.9377 21.4682 13.0808 21.6471 13.6912C21.8588 14.3922 22.0988 14.5734 22.8141 14.5734C23.0541 14.5734 23.2471 14.5877 23.2471 14.602C23.2471 14.6211 23.3129 15.1504 23.3882 15.7846C23.4918 16.6143 23.52 16.9624 23.4871 17.0387C23.4071 17.2152 23.1624 17.2486 22.1459 17.2343L21.2094 17.22L21.1294 16.9338C21.0259 16.5476 20.8941 16.2996 20.6635 16.0612C20.2682 15.6511 19.7553 15.4317 19.1859 15.4317C18.7482 15.4317 18.4471 15.5223 18.0753 15.7655L17.7835 15.9563H16.9882H16.1882V12.9282V9.90011H17.9059C19.3976 9.90011 19.6471 9.90965 19.7788 9.97641ZM4.68706 11.1876C5.25176 11.469 5.55294 11.9745 5.55294 12.6421C5.55294 13.1475 5.42118 13.4718 5.08235 13.8199C4.85647 14.0488 4.76235 14.106 4.47529 14.1919C3.66588 14.4446 2.88941 14.1156 2.51294 13.3717C2.32941 13.014 2.30118 12.4656 2.44706 12.0841C2.62588 11.6025 3.10118 11.1686 3.59529 11.0398C3.88235 10.9635 4.37176 11.0303 4.68706 11.1876ZM11.5529 11.0493C11.9294 11.1209 12.2212 11.2782 12.4612 11.5405C12.7718 11.8839 12.8659 12.1318 12.8706 12.6421C12.8706 13.0188 12.8565 13.1046 12.7388 13.3431C12.5694 13.6959 12.1788 14.0584 11.8212 14.1919C11.6047 14.2777 11.4824 14.292 11.1953 14.2777C10.56 14.2396 10.0753 13.8962 9.79765 13.2954C9.61882 12.9091 9.61882 12.375 9.79294 11.9983C10.0282 11.4928 10.4094 11.1733 10.9176 11.0637C11.2518 10.9874 11.2329 10.9874 11.5529 11.0493ZM1.86353 12.4799C1.84941 12.561 1.83529 12.6707 1.83529 12.7184C1.83529 12.8042 1.78824 12.809 1.15294 12.809H0.470588V12.5705V12.3321H1.18118H1.89647L1.86353 12.4799ZM9.17647 12.5705V12.809H7.62353H6.07059V12.5705V12.3321H7.62353H9.17647V12.5705ZM14.8235 12.5705V12.809H14.0941H13.3647V12.5705V12.3321H14.0941H14.8235V12.5705ZM9.37412 13.5624C9.44471 13.715 9.58588 13.9391 9.69412 14.0631L9.89176 14.2872H7.62823H5.36471L5.56235 14.0345C5.67529 13.8962 5.81647 13.6721 5.87765 13.5338L5.99059 13.2858H7.61882H9.24706L9.37412 13.5624ZM23.1294 13.6053C23.1435 13.7341 23.1718 13.8915 23.1812 13.963L23.2094 14.0965H22.8376C22.3859 14.0965 22.3012 14.044 22.1694 13.6912C22.1129 13.5433 22.0706 13.4146 22.0706 13.4051C22.0706 13.3907 22.3012 13.3812 22.5835 13.3812H23.1012L23.1294 13.6053ZM15.0588 15.384V15.9563H11.1482H7.24235L7.09176 15.8418C6.70118 15.5462 6.17882 15.3983 5.67529 15.446C5.31765 15.4794 5.04 15.5843 4.73882 15.7989L4.51765 15.9563H2.98824H1.45882V15.384V14.8118H8.25882H15.0588V15.384ZM6.58823 16.1089C7.67059 16.6668 7.64706 18.3024 6.55059 18.8508C6.32 18.9653 6.22588 18.9843 5.88235 18.9843C5.40706 18.9843 5.07765 18.8508 4.78588 18.5504C4.48 18.2261 4.4 18.0068 4.4 17.4584C4.4 16.9338 4.46118 16.7526 4.75765 16.4141C5.19529 15.9038 5.94353 15.7798 6.58823 16.1089ZM19.8729 16.0755C20.1741 16.2185 20.4376 16.4951 20.5788 16.8099C20.7294 17.1437 20.72 17.7493 20.56 18.1069C20.2494 18.7793 19.5388 19.1274 18.8329 18.9414C18.1365 18.7602 17.7412 18.2786 17.7035 17.5538C17.68 17.096 17.7882 16.7526 18.0471 16.4427C18.4894 15.9229 19.2424 15.7703 19.8729 16.0755ZM4.08 16.538C4.05647 16.5953 3.91059 17.0578 3.87765 17.1818C3.86353 17.2295 3.67529 17.2438 3.12941 17.2438H2.4V16.8623V16.4808H3.25176C3.91529 16.4808 4.09882 16.4951 4.08 16.538ZM15.7082 16.848L15.6941 17.22L14.7953 17.2343L13.8965 17.2438L13.8682 17.1055C13.8494 17.0244 13.7929 16.9148 13.7412 16.8623C13.6471 16.7669 13.5953 16.7669 11.3506 16.7669C8.81882 16.7669 8.88941 16.7574 8.80941 17.0674L8.77176 17.22L8.33882 17.2343C8.01412 17.2438 7.90118 17.2295 7.88706 17.1866C7.79294 16.8814 7.71765 16.6286 7.68941 16.5619C7.66118 16.4856 7.92 16.4808 11.6894 16.4808H15.7224L15.7082 16.848ZM17.3176 16.7288C17.2706 16.8671 17.2188 17.0435 17.2 17.115L17.1718 17.2486L16.6918 17.2343L16.2118 17.22L16.1976 16.848L16.1835 16.4808H16.7953H17.4071L17.3176 16.7288ZM11.7647 17.4822V17.7207H10.5176H9.27059V17.4822V17.2438H10.5176H11.7647V17.4822ZM13.3647 17.4822V17.7207H12.8H12.2353V17.4822V17.2438H12.8H13.3647V17.4822Z" fill="white"/>
<path d="M4.30601 6.10422C4.04719 6.21867 3.94836 6.39511 3.57189 7.41559C3.19542 8.43608 3.15777 8.59821 3.2566 8.69836C3.3366 8.77942 6.87542 8.77942 6.95542 8.69836C6.99777 8.65544 7.01189 8.29779 7.01189 7.38698C7.01189 6.19959 7.00719 6.13283 6.92248 6.08515C6.7766 6.00885 4.48483 6.02315 4.30601 6.10422ZM6.5413 7.39652V8.27872H5.14836C4.38601 8.27872 3.76954 8.26441 3.77895 8.24057C3.79307 8.22149 3.93424 7.84477 4.09424 7.40606C4.32013 6.79567 4.41424 6.59062 4.48954 6.56201C4.5413 6.53817 5.02601 6.51909 5.56719 6.51909L6.5413 6.51432V7.39652Z" fill="white"/>
<path d="M7.36937 6.14289C7.25643 6.30503 7.25643 8.57013 7.36937 8.67981C7.43526 8.74657 7.68467 8.7561 9.41173 8.7561H11.3882L11.4635 8.63689C11.5435 8.51767 11.5341 8.50337 10.9411 7.45427C10.6117 6.8725 10.2964 6.34318 10.24 6.28119C10.0423 6.05706 9.91996 6.03799 8.63996 6.03799C7.45408 6.03799 7.43996 6.03799 7.36937 6.14289ZM9.77408 6.54346C9.84937 6.56253 10.0141 6.8105 10.3529 7.40181C10.6117 7.85483 10.8235 8.24109 10.8235 8.2554C10.8235 8.2697 10.1458 8.27924 9.31761 8.27924H7.81173V7.39704V6.51485H8.74349C9.25173 6.51485 9.71761 6.52915 9.77408 6.54346Z" fill="white"/>
<path d="M16.6918 10.3673C16.6212 10.4436 16.6118 10.5962 16.6118 11.488C16.6118 12.4608 16.6165 12.5275 16.7059 12.6181C16.7953 12.7087 16.8612 12.7135 18.7436 12.7135C20.8424 12.7135 20.8942 12.7087 20.8942 12.4608C20.8942 12.2939 19.7695 10.5152 19.5812 10.3912C19.4259 10.2815 19.3977 10.2815 18.0942 10.2815C16.8706 10.2815 16.7624 10.2863 16.6918 10.3673ZM19.3224 10.7965C19.3695 10.8299 20.1883 12.1222 20.1883 12.1699C20.1883 12.1794 19.5012 12.189 18.6589 12.189H17.1295V11.4737V10.7584H18.2024C18.7906 10.7584 19.2942 10.7774 19.3224 10.7965Z" fill="white"/>
<path d="M17.2236 13.4242C17.0825 13.696 17.2377 13.8104 17.7366 13.8104C18.1742 13.8104 18.306 13.7627 18.306 13.5958C18.306 13.3431 18.2825 13.3336 17.7601 13.3336C17.3272 13.3336 17.2707 13.3431 17.2236 13.4242Z" fill="white"/>
<path d="M3.38351 11.5597C2.65881 11.9364 2.53175 13.0332 3.14351 13.5768C3.74116 14.1109 4.67292 13.9344 5.04939 13.2192C5.19528 12.9426 5.19528 12.3417 5.04939 12.0699C4.7341 11.4738 3.98116 11.2449 3.38351 11.5597ZM4.36704 12.0318C4.68704 12.275 4.77645 12.6088 4.62116 12.9664C4.48469 13.2811 4.29175 13.3908 3.91998 13.3718C3.68939 13.3574 3.59998 13.3288 3.50116 13.2382C3.11057 12.8615 3.17175 12.2225 3.62351 11.9841C3.83057 11.8744 4.19292 11.8982 4.36704 12.0318Z" fill="white"/>
<path d="M10.8284 11.4925C10.4002 11.6499 10.0708 12.1363 10.0708 12.6227C10.0708 13.3713 10.5743 13.8864 11.2943 13.8768C12.0049 13.8673 12.4708 13.3713 12.4708 12.6322C12.4661 12.1124 12.2261 11.7166 11.7884 11.5164C11.5673 11.4114 11.0732 11.4019 10.8284 11.4925ZM11.6049 11.9789C11.8355 12.0886 11.9673 12.3032 11.9861 12.5893C12.0237 13.0566 11.7273 13.3809 11.2708 13.3809C10.6967 13.3809 10.3814 12.842 10.6402 12.2984C10.8096 11.9455 11.2379 11.8025 11.6049 11.9789Z" fill="white"/>
<path d="M5.52964 16.4903C4.87553 16.724 4.64964 17.5776 5.092 18.126C5.5767 18.722 6.59317 18.5504 6.82376 17.8351C6.91788 17.549 6.86612 17.0959 6.71082 16.867C6.46612 16.5142 5.94376 16.3425 5.52964 16.4903ZM6.19788 17.0292C6.32964 17.1198 6.40023 17.2819 6.40023 17.5156C6.40023 17.754 6.14612 18.0067 5.91082 18.0067C5.56729 18.0067 5.36494 17.8065 5.36494 17.4584C5.36494 17.2342 5.43082 17.1198 5.61435 17.0006C5.78376 16.8909 6.00494 16.9052 6.19788 17.0292Z" fill="white"/>
<path d="M18.7762 16.5043C18.0703 16.8286 17.9762 17.8538 18.6162 18.3068C19.0491 18.6168 19.7456 18.4928 20.0327 18.0493C20.1362 17.8872 20.1644 17.7823 20.1786 17.5105C20.1927 17.2244 20.1786 17.1385 20.0797 16.9573C20.0186 16.8381 19.8774 16.6807 19.7691 16.5997C19.6044 16.4852 19.5197 16.4566 19.2562 16.4471C19.0444 16.4375 18.8844 16.4566 18.7762 16.5043ZM19.5856 17.0956C19.9103 17.4676 19.6139 18.0493 19.1291 17.9873C18.8562 17.954 18.6821 17.7441 18.6821 17.4533C18.6821 17.2673 18.7056 17.2101 18.8468 17.067C19.0021 16.9096 19.0303 16.9001 19.2327 16.9239C19.4068 16.943 19.4868 16.9812 19.5856 17.0956Z" fill="white"/>
</svg>
