<svg width="281" height="281" viewBox="0 0 281 281" fill="none" xmlns="http://www.w3.org/2000/svg">
<path d="M147.921 45.4479C147.921 45.4479 130.019 92.5476 75.2857 85.0508C20.5527 77.554 -7.92415 153.443 44.7766 177.582C97.4773 201.721 63.7384 234.729 98.7648 248.664C138.575 264.502 149.673 203.47 178.572 207.463C242.353 216.276 280.193 192.92 261.342 165.396C228.252 117.081 206.361 120.153 213.491 87.3567C220.621 54.5605 167.369 7.80657 147.921 45.4479Z" fill="#EAEBF0"/>
<path d="M130.605 92.2447C130.167 92.2168 129.756 92.02 129.46 91.6955C129.164 91.3711 129.005 90.9444 129.016 90.5051L129.138 73.9531C129.136 73.7229 129.179 73.4946 129.267 73.2816C129.354 73.0686 129.484 72.8754 129.647 72.7135C129.811 72.5516 130.005 72.4243 130.219 72.3392C130.433 72.2541 130.662 72.2129 130.892 72.2181L132.215 72.2772C132.445 72.2923 132.669 72.3537 132.874 72.4576C133.079 72.5615 133.26 72.7058 133.408 72.8818C133.556 73.0578 133.667 73.2619 133.734 73.4818C133.801 73.7017 133.822 73.9328 133.797 74.1613L132.352 90.6542C132.322 91.0933 132.124 91.5038 131.798 91.8001C131.473 92.0964 131.045 92.2556 130.605 92.2447Z" fill="#2C3134"/>
<path d="M122.867 94.0379C122.597 94.1314 122.301 94.1137 122.044 93.9888C121.786 93.8638 121.589 93.6418 121.496 93.3716L117.782 83.2544C117.674 82.9668 117.685 82.6482 117.812 82.3685C117.939 82.0888 118.171 81.8709 118.459 81.7626L119.283 81.4708C119.424 81.4222 119.574 81.4034 119.723 81.4156C119.872 81.4279 120.017 81.4709 120.148 81.542C120.28 81.613 120.395 81.7106 120.487 81.8285C120.579 81.9465 120.646 82.0822 120.683 82.2271L123.573 92.6359C123.653 92.9155 123.625 93.215 123.494 93.4748C123.363 93.7346 123.14 93.9357 122.867 94.0379Z" fill="#2C3134"/>
<path d="M118.793 100.166C118.249 100.91 117.085 100.957 116.155 100.272L99.6472 88.1093C98.6611 87.3828 98.3206 86.1195 98.898 85.3305L99.7029 84.2307C100.281 83.4415 101.543 83.4439 102.482 84.2364L118.185 97.4988C119.069 98.2457 119.337 99.4224 118.793 100.166Z" fill="#2C3134"/>
<path d="M234.745 126.446L132.896 102.201C129.121 101.302 125.333 103.633 124.435 107.408L109.457 170.326C108.559 174.1 110.89 177.888 114.665 178.787L216.514 203.032C220.288 203.93 224.076 201.599 224.975 197.825L239.952 134.907C240.851 131.132 238.52 127.344 234.745 126.446Z" fill="#F5F8FA"/>
<path d="M238.538 140.846L123.021 113.347L119.887 126.513L235.404 154.012L238.538 140.846Z" fill="#2C3134"/>
<path d="M220.022 190.024L197.052 184.557C196.979 184.539 196.906 184.584 196.888 184.657L195.433 190.771C195.416 190.844 195.461 190.917 195.534 190.934L218.504 196.402C218.577 196.42 218.65 196.375 218.668 196.301L220.123 190.188C220.14 190.115 220.095 190.042 220.022 190.024Z" fill="white"/>
<path d="M175.737 93.4219L57.1127 134.286C53.4444 135.55 51.4951 139.548 52.7587 143.216L78.3088 217.385C79.5724 221.053 83.5705 223.003 87.2388 221.739L205.863 180.875C209.531 179.611 211.481 175.613 210.217 171.945L184.667 97.7758C183.403 94.1076 179.405 92.1583 175.737 93.4219Z" fill="#2C3134"/>
<path d="M173.272 103.01L159.435 107.777C157.234 108.535 156.065 110.934 156.823 113.135L161.589 126.972C162.348 129.173 164.746 130.342 166.947 129.584L180.784 124.817C182.985 124.059 184.155 121.66 183.397 119.459L178.63 105.622C177.872 103.421 175.473 102.252 173.272 103.01Z" fill="white"/>
<path d="M124.808 169.323L78.7819 185.178C78.6501 185.223 78.58 185.367 78.6254 185.499L80.9698 192.304C81.0152 192.436 81.1589 192.506 81.2908 192.461L127.317 176.606C127.448 176.56 127.518 176.417 127.473 176.285L125.129 169.479C125.083 169.348 124.94 169.277 124.808 169.323Z" fill="white"/>
<path d="M149.312 176.613L83.6254 199.241C83.4936 199.286 83.4235 199.43 83.469 199.562L85.8133 206.367C85.8587 206.499 86.0024 206.569 86.1343 206.524L151.821 183.896C151.953 183.85 152.023 183.707 151.977 183.575L149.633 176.769C149.588 176.637 149.444 176.567 149.312 176.613Z" fill="white"/>
</svg>
