<svg width="24" height="24" viewBox="0 0 24 24" fill="none" xmlns="http://www.w3.org/2000/svg">
<path d="M12.5029 2C7.24907 2.00575 2.99426 6.26939 3.00001 11.5233C3.00135 13.1176 3.40374 14.6859 4.17013 16.084L3.44074 20.5664L7.9232 19.837C12.525 22.3612 18.3027 20.6774 20.8269 16.0751C23.351 11.4729 21.6677 5.69605 17.0654 3.17145C15.6671 2.40438 14.0978 2.00153 12.5029 2ZM7.7508 6.31891H10.3413C10.4585 6.31891 10.5709 6.36548 10.6538 6.44838C10.7367 6.53128 10.7833 6.64372 10.7833 6.76096C10.7688 7.35049 10.8679 7.9373 11.0751 8.48941C11.1643 8.67423 11.1839 8.88502 11.1303 9.08313C11.0768 9.28124 10.9535 9.4534 10.7833 9.56803L9.8771 10.4521C10.2789 11.2368 10.8043 11.9518 11.4331 12.5696C12.046 13.2087 12.758 13.7446 13.5418 14.1566L14.4259 13.2504C14.8679 12.8083 15.0713 12.8083 15.5045 12.9586C16.0566 13.1658 16.6434 13.2649 17.2329 13.2504C17.3484 13.2558 17.4578 13.3041 17.5396 13.3858C17.6213 13.4676 17.6696 13.5769 17.675 13.6924V16.2829C17.6696 16.3984 17.6213 16.5077 17.5396 16.5895C17.4578 16.6713 17.3484 16.7196 17.2329 16.7249C14.6326 16.6117 12.1677 15.5337 10.3192 13.7013C8.4839 11.8547 7.40539 9.38863 7.29548 6.78749C7.29653 6.66581 7.34444 6.54922 7.42924 6.46195C7.51404 6.37468 7.6292 6.32345 7.7508 6.31891Z" stroke="#2C3134" stroke-width="0.8" stroke-linecap="round" stroke-linejoin="round"/>
</svg>
